<svg aria-hidden="true" style="position:absolute;width:0;height:0;overflow:hidden" xmlns="http://www.w3.org/2000/svg">
  <defs>
    <symbol id="icon-arrow" viewBox="0 0 19 32">
      <path stroke-linecap="round" stroke-linejoin="round" stroke-width="4.8" d="M3.2 3.2 16 16 3.2 28.8"/>
    </symbol>
    <symbol id="icon-search" viewBox="0 0 32 32">
      <path d="M21.833 19.333h-1.317l-.467-.45a10.783 10.783 0 0 0 2.617-7.05 10.83 10.83 0 0 0-6.688-10.009 10.833 10.833 0 1 0-4.146 20.843c2.683 0 5.15-.983 7.05-2.617l.45.467v1.317l8.333 8.317 2.483-2.483-8.317-8.333zm-10 0c-4.15 0-7.5-3.35-7.5-7.5s3.35-7.5 7.5-7.5 7.5 3.35 7.5 7.5-3.35 7.5-7.5 7.5z"/>
    </symbol>
    <symbol id="icon-cross" viewBox="0 0 32 32">
      <path stroke-linejoin="round" stroke-linecap="round" stroke-width="3" d="M24 8 8 24M8 8l16 16"/>
    </symbol>
  </defs>
</svg>
